<svg width="272" height="31" viewBox="0 0 272 31" fill="none" xmlns="http://www.w3.org/2000/svg">
<path d="M0.201705 30V0.90909H7.23295V12.5852H18.696V0.90909H25.7131V30H18.696V18.3097H7.23295V30H0.201705ZM40.3082 30.4119C38.0166 30.4119 36.0469 29.9432 34.3991 29.0057C32.7609 28.0587 31.4967 26.7424 30.6065 25.0568C29.7259 23.3617 29.2855 21.3968 29.2855 19.1619C29.2855 16.9176 29.7259 14.9527 30.6065 13.267C31.4967 11.572 32.7609 10.2557 34.3991 9.31818C36.0469 8.37121 38.0166 7.89773 40.3082 7.89773C42.5999 7.89773 44.5649 8.37121 46.2031 9.31818C47.8509 10.2557 49.1151 11.572 49.9957 13.267C50.8859 14.9527 51.331 16.9176 51.331 19.1619C51.331 21.3968 50.8859 23.3617 49.9957 25.0568C49.1151 26.7424 47.8509 28.0587 46.2031 29.0057C44.5649 29.9432 42.5999 30.4119 40.3082 30.4119ZM40.3509 25.1705C41.1842 25.1705 41.8897 24.9148 42.4673 24.4034C43.045 23.892 43.4853 23.1818 43.7884 22.2727C44.1009 21.3636 44.2571 20.3125 44.2571 19.1193C44.2571 17.9072 44.1009 16.8466 43.7884 15.9375C43.4853 15.0284 43.045 14.3182 42.4673 13.8068C41.8897 13.2955 41.1842 13.0398 40.3509 13.0398C39.4891 13.0398 38.7599 13.2955 38.1634 13.8068C37.5762 14.3182 37.1264 15.0284 36.8139 15.9375C36.5109 16.8466 36.3594 17.9072 36.3594 19.1193C36.3594 20.3125 36.5109 21.3636 36.8139 22.2727C37.1264 23.1818 37.5762 23.892 38.1634 24.4034C38.7599 24.9148 39.4891 25.1705 40.3509 25.1705ZM73.9375 14.8438L67.5597 15.0142C67.4934 14.5597 67.3134 14.1572 67.0199 13.8068C66.7263 13.447 66.3428 13.1676 65.8693 12.9688C65.4053 12.7604 64.8655 12.6562 64.25 12.6562C63.4451 12.6562 62.7585 12.8172 62.1903 13.1392C61.6316 13.4612 61.357 13.8968 61.3665 14.446C61.357 14.8722 61.5275 15.2415 61.8778 15.554C62.2377 15.8665 62.8769 16.1174 63.7955 16.3068L68 17.1023C70.178 17.5189 71.7973 18.2102 72.858 19.1761C73.928 20.142 74.4678 21.4205 74.4773 23.0114C74.4678 24.5076 74.0227 25.8097 73.142 26.9176C72.2708 28.0256 71.0777 28.8873 69.5625 29.5028C68.0473 30.1089 66.3144 30.4119 64.3636 30.4119C61.2481 30.4119 58.7907 29.7727 56.9915 28.4943C55.2017 27.2064 54.179 25.483 53.9233 23.3239L60.7841 23.1534C60.9356 23.9489 61.3286 24.5549 61.9631 24.9716C62.5975 25.3883 63.4072 25.5966 64.392 25.5966C65.2822 25.5966 66.0066 25.4309 66.5653 25.0994C67.1241 24.768 67.4081 24.3277 67.4176 23.7784C67.4081 23.286 67.1903 22.893 66.7642 22.5994C66.3381 22.2964 65.6705 22.0597 64.7614 21.8892L60.9545 21.1648C58.767 20.767 57.1383 20.0331 56.0682 18.9631C54.9981 17.8835 54.4678 16.5104 54.4773 14.8438C54.4678 13.3854 54.8561 12.1402 55.642 11.108C56.428 10.0663 57.5455 9.27083 58.9943 8.72159C60.4432 8.17235 62.1525 7.89773 64.1222 7.89773C67.0767 7.89773 69.4063 8.51799 71.1108 9.75852C72.8153 10.9896 73.7576 12.6847 73.9375 14.8438ZM90.2124 8.18182V13.2955H76.4482V8.18182H90.2124ZM79.3317 2.95455H86.2777V23.1392C86.2777 23.5653 86.344 23.911 86.4766 24.1761C86.6186 24.4318 86.8222 24.6165 87.0874 24.7301C87.3525 24.8343 87.6697 24.8864 88.0391 24.8864C88.3042 24.8864 88.5836 24.8627 88.8771 24.8153C89.1802 24.7585 89.4074 24.7112 89.5589 24.6733L90.6101 29.6875C90.2786 29.7822 89.8099 29.9006 89.2038 30.0426C88.6072 30.1847 87.8923 30.2746 87.0589 30.3125C85.4302 30.3883 84.0334 30.1989 82.8686 29.7443C81.7133 29.2803 80.8279 28.5606 80.2124 27.5852C79.6063 26.6098 79.3127 25.3835 79.3317 23.9062V2.95455ZM103.721 30.4119C101.439 30.4119 99.469 29.9621 97.8118 29.0625C96.1641 28.1534 94.8951 26.8608 94.005 25.1847C93.1243 23.4991 92.6839 21.4962 92.6839 19.1761C92.6839 16.9223 93.129 14.9527 94.0192 13.267C94.9093 11.572 96.1641 10.2557 97.7834 9.31818C99.4027 8.37121 101.311 7.89773 103.508 7.89773C105.061 7.89773 106.481 8.1392 107.769 8.62216C109.057 9.10511 110.17 9.82008 111.107 10.767C112.045 11.714 112.774 12.8835 113.295 14.2756C113.816 15.6581 114.076 17.2443 114.076 19.0341V20.767H95.1129V16.733H107.613C107.603 15.9943 107.428 15.3362 107.087 14.7585C106.746 14.1809 106.278 13.7311 105.681 13.4091C105.094 13.0777 104.417 12.9119 103.65 12.9119C102.873 12.9119 102.177 13.0871 101.562 13.4375C100.946 13.7784 100.459 14.2472 100.099 14.8438C99.7389 15.4309 99.5495 16.0985 99.5305 16.8466V20.9517C99.5305 21.8419 99.7057 22.6231 100.056 23.2955C100.406 23.9583 100.904 24.4744 101.548 24.8438C102.192 25.2131 102.959 25.3977 103.849 25.3977C104.464 25.3977 105.023 25.3125 105.525 25.142C106.027 24.9716 106.458 24.7206 106.817 24.3892C107.177 24.0578 107.447 23.6506 107.627 23.1676L114.005 23.3523C113.74 24.7822 113.157 26.0275 112.258 27.0881C111.368 28.1392 110.198 28.9583 108.749 29.5455C107.3 30.1231 105.624 30.4119 103.721 30.4119ZM124.57 0.90909V30H117.624V0.90909H124.57ZM128.991 30V0.90909H141.121C143.299 0.90909 145.122 1.21686 146.59 1.83239C148.067 2.44792 149.175 3.30966 149.914 4.41761C150.662 5.52557 151.036 6.80871 151.036 8.26705C151.036 9.375 150.804 10.3646 150.34 11.2358C149.876 12.0975 149.237 12.8125 148.423 13.3807C147.608 13.9489 146.666 14.3466 145.596 14.5739V14.858C146.77 14.9148 147.854 15.232 148.849 15.8097C149.853 16.3873 150.657 17.1922 151.263 18.2244C151.87 19.2472 152.173 20.4593 152.173 21.8608C152.173 23.4233 151.775 24.8201 150.979 26.0511C150.184 27.2727 149.033 28.2386 147.528 28.9489C146.022 29.6496 144.194 30 142.045 30H128.991ZM136.022 24.3324H140.369C141.893 24.3324 143.015 24.0436 143.735 23.4659C144.464 22.8883 144.829 22.0833 144.829 21.0511C144.829 20.303 144.654 19.6591 144.303 19.1193C143.953 18.5701 143.456 18.1487 142.812 17.8551C142.168 17.5521 141.396 17.4006 140.496 17.4006H136.022V24.3324ZM136.022 12.8693H139.914C140.681 12.8693 141.363 12.7415 141.96 12.4858C142.556 12.2301 143.02 11.8608 143.352 11.3778C143.692 10.8949 143.863 10.3125 143.863 9.63068C143.863 8.6553 143.517 7.88826 142.826 7.32955C142.135 6.77083 141.202 6.49148 140.028 6.49148H136.022V12.8693ZM161.704 30.3693C160.312 30.3693 159.076 30.1373 157.996 29.6733C156.926 29.1998 156.079 28.4896 155.454 27.5426C154.838 26.5862 154.531 25.3883 154.531 23.9489C154.531 22.7367 154.744 21.714 155.17 20.8807C155.596 20.0473 156.183 19.3703 156.931 18.8494C157.679 18.3286 158.541 17.9356 159.516 17.6705C160.492 17.3958 161.533 17.2112 162.641 17.1165C163.882 17.0028 164.881 16.8845 165.638 16.7614C166.396 16.6288 166.945 16.4441 167.286 16.2074C167.637 15.9612 167.812 15.6155 167.812 15.1705V15.0994C167.812 14.3703 167.561 13.8068 167.059 13.4091C166.557 13.0114 165.88 12.8125 165.028 12.8125C164.109 12.8125 163.371 13.0114 162.812 13.4091C162.253 13.8068 161.898 14.3561 161.746 15.0568L155.34 14.8295C155.53 13.5038 156.017 12.3201 156.803 11.2784C157.599 10.2273 158.688 9.40341 160.07 8.80682C161.462 8.20076 163.134 7.89773 165.085 7.89773C166.477 7.89773 167.76 8.06345 168.934 8.39489C170.108 8.71686 171.131 9.19034 172.002 9.81534C172.873 10.4309 173.546 11.1884 174.019 12.0881C174.502 12.9877 174.744 14.0152 174.744 15.1705V30H168.21V26.9602H168.039C167.651 27.6989 167.154 28.3239 166.548 28.8352C165.951 29.3466 165.246 29.7301 164.431 29.9858C163.626 30.2415 162.717 30.3693 161.704 30.3693ZM163.849 25.8239C164.597 25.8239 165.269 25.6723 165.866 25.3693C166.472 25.0663 166.955 24.6496 167.315 24.1193C167.674 23.5795 167.854 22.9545 167.854 22.2443V20.1705C167.656 20.2746 167.414 20.3693 167.13 20.4545C166.855 20.5398 166.552 20.6203 166.221 20.696C165.889 20.7718 165.549 20.8381 165.198 20.8949C164.848 20.9517 164.512 21.0038 164.19 21.0511C163.536 21.1553 162.978 21.3163 162.513 21.5341C162.059 21.7519 161.709 22.036 161.462 22.3864C161.226 22.7273 161.107 23.1345 161.107 23.608C161.107 24.3277 161.363 24.8769 161.874 25.2557C162.395 25.6345 163.053 25.8239 163.849 25.8239ZM179.048 30V26.0369L189.161 13.7216V13.5795H179.403V8.18182H197.442V12.5284L188.067 24.4602V24.6023H197.783V30H179.048ZM208.423 30.3693C207.031 30.3693 205.795 30.1373 204.715 29.6733C203.645 29.1998 202.798 28.4896 202.173 27.5426C201.557 26.5862 201.249 25.3883 201.249 23.9489C201.249 22.7367 201.462 21.714 201.888 20.8807C202.315 20.0473 202.902 19.3703 203.65 18.8494C204.398 18.3286 205.26 17.9356 206.235 17.6705C207.21 17.3958 208.252 17.2112 209.36 17.1165C210.601 17.0028 211.6 16.8845 212.357 16.7614C213.115 16.6288 213.664 16.4441 214.005 16.2074C214.355 15.9612 214.531 15.6155 214.531 15.1705V15.0994C214.531 14.3703 214.28 13.8068 213.778 13.4091C213.276 13.0114 212.599 12.8125 211.746 12.8125C210.828 12.8125 210.089 13.0114 209.531 13.4091C208.972 13.8068 208.617 14.3561 208.465 15.0568L202.059 14.8295C202.248 13.5038 202.736 12.3201 203.522 11.2784C204.317 10.2273 205.406 9.40341 206.789 8.80682C208.181 8.20076 209.853 7.89773 211.803 7.89773C213.195 7.89773 214.478 8.06345 215.653 8.39489C216.827 8.71686 217.85 9.19034 218.721 9.81534C219.592 10.4309 220.264 11.1884 220.738 12.0881C221.221 12.9877 221.462 14.0152 221.462 15.1705V30H214.928V26.9602H214.758C214.37 27.6989 213.872 28.3239 213.266 28.8352C212.67 29.3466 211.964 29.7301 211.15 29.9858C210.345 30.2415 209.436 30.3693 208.423 30.3693ZM210.567 25.8239C211.316 25.8239 211.988 25.6723 212.585 25.3693C213.191 25.0663 213.674 24.6496 214.033 24.1193C214.393 23.5795 214.573 22.9545 214.573 22.2443V20.1705C214.374 20.2746 214.133 20.3693 213.849 20.4545C213.574 20.5398 213.271 20.6203 212.94 20.696C212.608 20.7718 212.267 20.8381 211.917 20.8949C211.567 20.9517 211.23 21.0038 210.908 21.0511C210.255 21.1553 209.696 21.3163 209.232 21.5341C208.778 21.7519 208.427 22.036 208.181 22.3864C207.944 22.7273 207.826 23.1345 207.826 23.608C207.826 24.3277 208.082 24.8769 208.593 25.2557C209.114 25.6345 209.772 25.8239 210.567 25.8239ZM231.86 30.3693C230.468 30.3693 229.232 30.1373 228.153 29.6733C227.083 29.1998 226.235 28.4896 225.61 27.5426C224.995 26.5862 224.687 25.3883 224.687 23.9489C224.687 22.7367 224.9 21.714 225.326 20.8807C225.752 20.0473 226.339 19.3703 227.087 18.8494C227.835 18.3286 228.697 17.9356 229.673 17.6705C230.648 17.3958 231.69 17.2112 232.798 17.1165C234.038 17.0028 235.037 16.8845 235.795 16.7614C236.552 16.6288 237.102 16.4441 237.442 16.2074C237.793 15.9612 237.968 15.6155 237.968 15.1705V15.0994C237.968 14.3703 237.717 13.8068 237.215 13.4091C236.713 13.0114 236.036 12.8125 235.184 12.8125C234.265 12.8125 233.527 13.0114 232.968 13.4091C232.409 13.8068 232.054 14.3561 231.903 15.0568L225.496 14.8295C225.686 13.5038 226.174 12.3201 226.96 11.2784C227.755 10.2273 228.844 9.40341 230.227 8.80682C231.619 8.20076 233.29 7.89773 235.241 7.89773C236.633 7.89773 237.916 8.06345 239.09 8.39489C240.264 8.71686 241.287 9.19034 242.158 9.81534C243.03 10.4309 243.702 11.1884 244.175 12.0881C244.658 12.9877 244.9 14.0152 244.9 15.1705V30H238.366V26.9602H238.195C237.807 27.6989 237.31 28.3239 236.704 28.8352C236.107 29.3466 235.402 29.7301 234.587 29.9858C233.782 30.2415 232.873 30.3693 231.86 30.3693ZM234.005 25.8239C234.753 25.8239 235.425 25.6723 236.022 25.3693C236.628 25.0663 237.111 24.6496 237.471 24.1193C237.831 23.5795 238.011 22.9545 238.011 22.2443V20.1705C237.812 20.2746 237.57 20.3693 237.286 20.4545C237.012 20.5398 236.709 20.6203 236.377 20.696C236.046 20.7718 235.705 20.8381 235.354 20.8949C235.004 20.9517 234.668 21.0038 234.346 21.0511C233.692 21.1553 233.134 21.3163 232.67 21.5341C232.215 21.7519 231.865 22.036 231.619 22.3864C231.382 22.7273 231.263 23.1345 231.263 23.608C231.263 24.3277 231.519 24.8769 232.031 25.2557C232.551 25.6345 233.21 25.8239 234.005 25.8239ZM249.147 30V8.18182H255.894V12.1591H256.121C256.519 10.7197 257.168 9.64962 258.067 8.94886C258.967 8.23864 260.013 7.88352 261.207 7.88352C261.529 7.88352 261.86 7.9072 262.201 7.95455C262.542 7.99242 262.859 8.05398 263.153 8.1392V14.1761C262.821 14.0625 262.386 13.9725 261.846 13.9062C261.316 13.84 260.842 13.8068 260.425 13.8068C259.602 13.8068 258.858 13.9915 258.195 14.3608C257.542 14.7206 257.026 15.2273 256.647 15.8807C256.278 16.5246 256.093 17.2822 256.093 18.1534V30H249.147ZM267.389 30.4119C266.366 30.4119 265.491 30.0521 264.761 29.3324C264.042 28.6127 263.687 27.7415 263.696 26.7188C263.687 25.715 264.042 24.858 264.761 24.1477C265.491 23.428 266.366 23.0682 267.389 23.0682C268.355 23.0682 269.207 23.428 269.946 24.1477C270.694 24.858 271.073 25.715 271.082 26.7188C271.073 27.4006 270.893 28.0208 270.543 28.5795C270.202 29.1383 269.752 29.5833 269.193 29.9148C268.644 30.2462 268.043 30.4119 267.389 30.4119Z" fill="#080707"/>
</svg>
